<svg width="221" height="220" viewBox="0 0 221 220" fill="none" xmlns="http://www.w3.org/2000/svg">
<rect x="19" y="18" width="202" height="202" fill="#9E7777"/>
<rect x="2" y="2" width="198" height="198" stroke="#30272B" stroke-width="4"/>
<path d="M116.89 59.41L105.1 41.23H112.84L122.11 59.41H116.89Z" fill="#30272B"/>
<path d="M142.096 103.688C146.256 103.688 149.616 104.328 152.176 105.608C154.736 106.824 157.136 108.264 159.376 109.928C160.208 110.568 160.848 110.888 161.296 110.888C162.512 110.888 163.312 108.936 163.696 105.032H165.904C165.776 107.4 165.68 110.28 165.616 113.672C165.552 117.064 165.52 121.544 165.52 127.112H163.312C162.864 124.424 162.32 121.832 161.68 119.336C161.04 116.84 159.984 114.696 158.512 112.904C156.656 110.536 154.224 108.712 151.216 107.432C148.208 106.088 145.104 105.416 141.904 105.416C138.704 105.416 135.792 106.216 133.168 107.816C130.608 109.352 128.4 111.592 126.544 114.536C124.688 117.48 123.248 121.032 122.224 125.192C121.264 129.288 120.784 133.928 120.784 139.112C120.784 150.632 122.64 159.08 126.352 164.456C130.064 169.768 135.824 172.424 143.632 172.424C145.936 172.424 147.92 172.104 149.584 171.464C151.312 170.76 152.656 170.088 153.616 169.448C154.832 168.616 155.6 167.848 155.92 167.144C156.24 166.376 156.4 165.384 156.4 164.168V154.952C156.4 152.328 156.144 150.376 155.632 149.096C155.12 147.816 154.16 146.952 152.752 146.504C151.408 146.056 149.392 145.8 146.704 145.736V143.816C147.856 143.88 149.2 143.944 150.736 144.008C152.272 144.008 153.872 144.04 155.536 144.104C157.264 144.104 158.832 144.104 160.24 144.104C162.352 144.104 164.24 144.072 165.904 144.008C167.632 143.944 169.072 143.88 170.224 143.816V145.736C168.816 145.8 167.76 146.024 167.056 146.408C166.352 146.792 165.872 147.56 165.616 148.712C165.424 149.864 165.328 151.624 165.328 153.992V173H163.408C163.344 171.912 163.088 170.728 162.64 169.448C162.256 168.168 161.648 167.528 160.816 167.528C160.432 167.528 160.048 167.624 159.664 167.816C159.28 168.008 158.608 168.456 157.648 169.16C155.536 170.76 153.296 172.04 150.928 173C148.56 173.896 145.808 174.344 142.672 174.344C136.08 174.344 130.416 173 125.68 170.312C121.008 167.56 117.424 163.624 114.928 158.504C112.432 153.384 111.184 147.272 111.184 140.168C111.184 132.68 112.528 126.216 115.216 120.776C117.904 115.336 121.552 111.144 126.16 108.2C130.832 105.192 136.144 103.688 142.096 103.688Z" fill="#30272B"/>
<path d="M53.08 128.048V126.224C55.96 126.16 58.36 125.456 60.28 124.112C62.264 122.768 63.736 120.528 64.696 117.392C65.72 114.32 66.232 110.192 66.232 105.008V52.208C66.232 49.84 66.04 48.112 65.656 47.024C65.272 45.872 64.504 45.104 63.352 44.72C62.264 44.272 60.632 44.016 58.456 43.952V42.032C59.8 42.096 61.56 42.16 63.736 42.224C65.912 42.288 68.184 42.32 70.552 42.32C72.92 42.32 75.192 42.288 77.368 42.224C79.608 42.16 81.464 42.096 82.936 42.032V43.952C80.76 44.016 79.096 44.272 77.944 44.72C76.856 45.104 76.12 45.872 75.736 47.024C75.352 48.112 75.16 49.84 75.16 52.208V87.344C75.16 89.968 75.128 92.816 75.064 95.888C75 98.96 74.84 101.936 74.584 104.816C74.392 107.696 74.04 110.224 73.528 112.4C72.44 116.88 70.136 120.592 66.616 123.536C63.16 126.544 58.648 128.048 53.08 128.048Z" fill="#30272B"/>
</svg>
